<svg id="Layer_1" data-name="Layer 1" xmlns="http://www.w3.org/2000/svg" viewBox="0 0 500 243.61"><defs><style>.cls-1{fill:#0770e3;}</style></defs><g id="Layer_1-2" data-name="Layer 1"><path class="cls-1" d="M500,518.5a13.35,13.35,0,0,0,6.6-1.8l24.3-14a26.69,26.69,0,0,1,16.25-3.4,360.66,360.66,0,0,1,56.35,10.75,3.25,3.25,0,0,0,3.45-1.1,18.77,18.77,0,0,0,3.2-6.1,18.12,18.12,0,0,0,1-6.75,3.2,3.2,0,0,0-2.35-3c-9.6-2.8-51.9-14.3-108.75-14.3S400.78,490.4,391.23,493.2a3.33,3.33,0,0,0-2.35,2.95,18.26,18.26,0,0,0,.95,6.75A19.29,19.29,0,0,0,393,509a3.28,3.28,0,0,0,3.45,1.1c6.1-1.8,26.86-7.35,56.36-10.75a26.41,26.41,0,0,1,16.25,3.4l24.3,14A13.84,13.84,0,0,0,500,518.5Z" transform="translate(-250 -378.19)"/><path class="cls-1" d="M459.44,439.7a9.67,9.67,0,0,0,16.75-9.65l-21.9-37.85a3.55,3.55,0,0,0-3.45-1.6,23.95,23.95,0,0,0-12.9,7.45,3.52,3.52,0,0,0-.35,3.8Z" transform="translate(-250 -378.19)"/><path class="cls-1" d="M439.39,466.8A9.67,9.67,0,1,0,449,450.05h0L411.18,428.2a3.52,3.52,0,0,0-3.8.35,18.47,18.47,0,0,0-4.75,5.85,18.9,18.9,0,0,0-2.7,7.05,3.55,3.55,0,0,0,1.6,3.45Z" transform="translate(-250 -378.19)"/><path class="cls-1" d="M509.64,426.25a9.65,9.65,0,1,1-19.3,0V382.49a3.53,3.53,0,0,1,2.2-3.1,23.73,23.73,0,0,1,14.9,0,3.53,3.53,0,0,1,2.2,3.1v43.76Z" transform="translate(-250 -378.19)"/><path class="cls-1" d="M540.54,439.7a9.67,9.67,0,1,1-16.75-9.65l21.9-37.85a3.55,3.55,0,0,1,3.45-1.6,23.95,23.95,0,0,1,12.9,7.45,3.52,3.52,0,0,1,.35,3.8Z" transform="translate(-250 -378.19)"/><path class="cls-1" d="M560.59,466.8a9.67,9.67,0,0,1-9.65-16.75h0l37.85-21.85a3.52,3.52,0,0,1,3.8.35,19.17,19.17,0,0,1,4.75,5.85,18.9,18.9,0,0,1,2.7,7.05,3.55,3.55,0,0,1-1.6,3.45Z" transform="translate(-250 -378.19)"/><path class="cls-1" d="M351.58,551.6h12.15a1,1,0,0,1,1,.7l12.1,31,11.75-31a1.09,1.09,0,0,1,1-.7h11.9a1.1,1.1,0,0,1,1.1,1,1.46,1.46,0,0,1-.1.45l-29.65,68a1,1,0,0,1-1,.65l-10.5,0a1.1,1.1,0,0,1-1.1-1,1.46,1.46,0,0,1,.1-.45l10.1-23.76-19.8-43.45a1,1,0,0,1,.55-1.4A.94.94,0,0,1,351.58,551.6Z" transform="translate(-250 -378.19)"/><path class="cls-1" d="M531,558.5v-5.8a1.11,1.11,0,0,1,1.1-1.1h10.75a1.11,1.11,0,0,1,1.1,1.1v46.15a1.11,1.11,0,0,1-1.1,1.1H532.09a1.11,1.11,0,0,1-1.1-1.1v-6.1a18.31,18.31,0,0,1-15.55,8.2c-15.7,0-23.9-12-23.9-25.4,0-17.45,12.15-25,23.5-25A19.14,19.14,0,0,1,531,558.5Zm-26.5,17.15c0,8.3,5.15,14.7,13.3,14.7s13.5-5.5,13.5-14.05-5.15-15.1-13.8-15.1C509.24,561.2,504.49,567.6,504.49,575.65Z" transform="translate(-250 -378.19)"/><path class="cls-1" d="M553.59,598.81V552.7a1.11,1.11,0,0,1,1.1-1.1h10.75a1.07,1.07,0,0,1,1.1,1h0v6.25c2.55-4.4,7.25-8.4,15.3-8.4,8.3,0,17.55,4.1,17.55,22.85v25.4a1.11,1.11,0,0,1-1.1,1.1h-10.8a1.11,1.11,0,0,1-1.1-1.1V573.5c0-4.5-1.1-12.25-9.15-12.25s-10.75,7.1-10.75,13.65v24a1.11,1.11,0,0,1-1.1,1.1H554.64A1.18,1.18,0,0,1,553.59,598.81Z" transform="translate(-250 -378.19)"/><path class="cls-1" d="M608.69,598.81V552.7a1.11,1.11,0,0,1,1.1-1.1h10.7a1.11,1.11,0,0,1,1.1,1.1V559c2.55-4.4,7.25-8.4,15.3-8.4,8.31,0,17.56,4.1,17.56,22.85v25.41a1.11,1.11,0,0,1-1.1,1.09H642.6a1.11,1.11,0,0,1-1.1-1.09V573.55c0-4.5-1.11-12.25-9.16-12.25s-10.8,7.05-10.8,13.55v24a1.14,1.14,0,0,1-1,1.09H609.74a1.07,1.07,0,0,1-1-1.09Z" transform="translate(-250 -378.19)"/><path class="cls-1" d="M721.45,551.6H731.9a1.07,1.07,0,0,1,1.1,1h0v9.55c2.1-9.5,10.2-12.7,16.15-11.35a1.07,1.07,0,0,1,.85,1v10.5a1.1,1.1,0,0,1-1,1.1h-.2c-11-2.15-15.45,3.75-15.45,12.1v23.25a1.11,1.11,0,0,1-1.1,1.1H721.45a1.11,1.11,0,0,1-1.1-1.1V552.7a1.14,1.14,0,0,1,1.1-1.1Z" transform="translate(-250 -378.19)"/><path class="cls-1" d="M280.43,562.1l-7.8-2.7c-2.7-.95-7.4-3.65-7.4-7.95s3-7,8.95-7c5.5,0,8.55,2.7,10.5,6.95a1.1,1.1,0,0,0,1.45.55,0,0,0,0,0,.05-.05l8.8-5.1a1.11,1.11,0,0,0,.45-1.4c-2.65-5.85-8.85-12.9-21.2-12.9-13.65,0-22.25,8.2-22.25,18.9s7,16.25,16.6,19.5l7.9,2.65c5.6,1.9,8.2,4.45,8.2,8s-2.2,7.6-10.95,7.6c-8,0-10.85-4.25-12.45-8.25a1.09,1.09,0,0,0-1.4-.6c-.05,0-.1,0-.15,0l-9.2,5.35a1.1,1.1,0,0,0-.45,1.35c3.5,8.75,13.25,14,24.2,14,12.8,0,23.6-6.55,23.6-19.7S283.73,563.2,280.43,562.1Z" transform="translate(-250 -378.19)"/><path class="cls-1" d="M351.18,587.3a1.07,1.07,0,0,0-1.45-.4c-.05,0-.05.05-.1.05-4.15,3-9.05,3.1-12.7-2.6l-6.85-10.7,16.25-20.25a1.09,1.09,0,0,0-.15-1.5,1.19,1.19,0,0,0-.7-.25h-12.7a1.14,1.14,0,0,0-.9.45l-14.05,19.35v-39a1.11,1.11,0,0,0-1.1-1.1H306a1.11,1.11,0,0,0-1.1,1.1h0v66.35A1.11,1.11,0,0,0,306,600h10.75a1.11,1.11,0,0,0,1.1-1.1h0V577.3l9.9,15.55a16.38,16.38,0,0,0,14.5,8.1c5.3,0,8.75-1.45,12.8-5.4a1.07,1.07,0,0,0,.2-1.3Z" transform="translate(-250 -378.19)"/><path class="cls-1" d="M428.24,572l-7.2-2.65c-2.6-1-4.85-2.35-4.85-4.45s1.9-4.4,5.85-4.4c3.45,0,5.5,1.35,6.65,3.7a1.08,1.08,0,0,0,1.45.5,0,0,0,0,0,.05-.05l7.55-4.35a1.07,1.07,0,0,0,.4-1.45v-.05c-2.05-3.6-6.15-8.25-16-8.25-12.11,0-18.31,7-18.31,14.7s6.3,11.35,12.11,13.65l7.75,3.15c2,.8,4.4,2.05,4.4,4.4s-2.65,4.35-6.8,4.35c-3.8,0-8.06-1.55-9.85-5.9a1.06,1.06,0,0,0-1.41-.6s-.1.05-.15.05l-7.6,4.4a1.06,1.06,0,0,0-.45,1.3c2.25,5.75,8.85,10.85,19.46,10.85,11.55,0,19.25-6.15,19.25-14.85S434.74,574.4,428.24,572Z" transform="translate(-250 -378.19)"/><path class="cls-1" d="M471.69,562.15a19,19,0,0,1,11.7,3.85,1.05,1.05,0,0,0,1.5-.25s.05,0,.05-.1l4.45-7.65a1.06,1.06,0,0,0-.35-1.45c-4.6-3.1-10.25-6-18-6s-14.7,2.1-19.75,7.15a25.9,25.9,0,0,0,.1,36.15c3.85,3.9,10.8,7.1,19.7,7.1a31.5,31.5,0,0,0,18-6,1.09,1.09,0,0,0,.3-1.45l-4.4-7.65a1.07,1.07,0,0,0-1.45-.4c-.05,0-.05,0-.1,0a19.76,19.76,0,0,1-11.7,3.85c-5.25,0-14.8-3-14.8-13.6S466.44,562.15,471.69,562.15Z" transform="translate(-250 -378.19)"/><path class="cls-1" d="M689.65,590.25c-4.3,0-8.4-1-11.35-3.4s-4.35-4.8-4.35-7.7h38.4a1.11,1.11,0,0,0,1.1-1.1v0c-.25-11.4-3.9-16.75-7.5-20.35a25.74,25.74,0,0,0-18.25-7.1c-8.25,0-14.7,3.05-19,7.35a25.23,25.23,0,0,0-.1,35.9c4.1,4.1,10.75,7.15,20.25,7.15,9,0,16.65-3.2,22.15-9.45a1,1,0,0,0-.1-1.5.69.69,0,0,0-.2-.15l-7.65-4.4a1,1,0,0,0-1.25.15A18.77,18.77,0,0,1,689.65,590.25Zm-2.1-29.3c6.15,0,11.8,3.7,12.65,10.4H674.4C676.05,564.1,681.4,561,687.55,561Z" transform="translate(-250 -378.19)"/></g></svg>